# Blender 4.0.2
# www.blender.org
mtllib cube4.mtl
o Cube
v 0.049421 0.000000 -0.023429
v 0.049421 1.197876 -0.023429
v 0.049421 0.000000 -1.260168
v 0.049421 1.197876 -1.260168
v 1.366498 0.000000 -0.023429
v 1.366498 1.197876 -0.023429
v 1.366498 0.000000 -1.260168
v 1.366498 1.197876 -1.260168
vn -1.0000 -0.0000 -0.0000
vn -0.0000 -0.0000 -1.0000
vn 1.0000 -0.0000 -0.0000
vn -0.0000 -0.0000 1.0000
vn -0.0000 -1.0000 -0.0000
vn -0.0000 1.0000 -0.0000
vt 1.000272 0.331917
vt 1.000589 0.667138
vt 0.750373 0.667374
vt 0.750057 0.332154
vt 0.500158 0.667610
vt 0.499842 0.332390
vt 0.249943 0.667846
vt 0.249627 0.332626
vt -0.000272 0.668082
vt -0.000589 0.332862
vt 0.499525 -0.002831
vt 0.249310 -0.002595
vt 0.500475 1.002831
vt 0.250260 1.003067
s 0
usemtl Material
f 1/1/1 2/2/1 4/3/1 3/4/1
f 3/4/2 4/3/2 8/5/2 7/6/2
f 7/6/3 8/5/3 6/7/3 5/8/3
f 5/8/4 6/7/4 2/9/4 1/10/4
f 3/11/5 7/6/5 5/8/5 1/12/5
f 8/5/6 4/13/6 2/14/6 6/7/6
