# Blender 4.0.2
# www.blender.org
mtllib cube2.mtl
o Cube
v 1.000000 1.000000 -1.000000
v 1.000000 -1.000000 -1.000000
v 1.000000 1.000000 1.000000
v 1.000000 -1.000000 1.000000
v -1.000000 1.000000 -1.000000
v -1.000000 -1.000000 -1.000000
v -1.000000 1.000000 1.000000
v -1.000000 -1.000000 1.000000
vn -0.0000 1.0000 -0.0000
vn -0.0000 -0.0000 1.0000
vn -1.0000 -0.0000 -0.0000
vn -0.0000 -1.0000 -0.0000
vn 1.0000 -0.0000 -0.0000
vn -0.0000 -0.0000 -1.0000
vt 0.099609 0.000000
vt 0.349609 0.000000
vt 0.349609 0.992188
vt 0.099609 0.992188
vt 0.396484 0.148438
vt 0.646484 0.148438
vt 0.646484 1.000000
vt 0.396484 1.000000
vt 0.486328 0.601562
vt 0.736328 0.601562
vt 0.736328 0.851562
vt 0.486328 0.851562
vt 0.537109 0.742188
vt 0.787109 0.742188
vt 0.787109 0.992188
vt 0.537109 0.992188
vt 0.468750 0.523438
vt 0.718750 0.523438
vt 0.718750 0.773438
vt 0.468750 0.773438
vt 0.347656 0.328125
vt 0.597656 0.328125
vt 0.597656 0.578125
vt 0.347656 0.578125
s 0
usemtl Material
f 1/1/1 5/2/1 7/3/1 3/4/1
f 4/5/2 3/6/2 7/7/2 8/8/2
f 8/9/3 7/10/3 5/11/3 6/12/3
f 6/13/4 2/14/4 4/15/4 8/16/4
f 2/17/5 1/18/5 3/19/5 4/20/5
f 6/21/6 5/22/6 1/23/6 2/24/6
