# Blender 4.0.1
# www.blender.org
mtllib left_door.mtl
o garage
v -0.031900 2.338300 3.561400
v -1.778000 2.338300 3.561400
v -1.702600 2.262400 3.561400
v -0.071900 2.262400 3.561400
v -1.778000 0.249000 3.561400
v -1.702600 0.324400 3.561400
v -0.031900 0.249000 3.561400
v -0.071900 0.324400 3.561400
v -0.031900 0.249000 3.441400
v -1.778000 0.249000 3.441400
v -1.702600 0.324400 3.441400
v -0.071900 0.324400 3.441400
v -1.778000 2.338300 3.441400
v -1.702600 2.262400 3.441400
v -0.031900 2.338300 3.441400
v -0.071900 2.262400 3.441400
v -0.071900 2.262400 3.541400
v -1.702600 2.262400 3.541400
v -1.702600 0.324400 3.541400
v -0.071900 0.324400 3.541400
v -0.071900 0.324400 3.461400
v -1.702600 0.324400 3.461400
v -1.702600 2.262400 3.461400
v -0.071900 2.262400 3.461400
vn -0.0000 -0.0000 1.0000
vn -0.0000 -0.0000 -1.0000
vn -0.0000 -1.0000 -0.0000
vn -1.0000 -0.0000 -0.0000
vn -0.0000 1.0000 -0.0000
vn 1.0000 -0.0000 -0.0000
vt 0.484000 1.004500
vt -0.371300 1.004500
vt -0.351300 0.984500
vt 0.464000 0.984500
vt -0.371300 -0.004500
vt -0.351300 0.015500
vt 0.484000 -0.004500
vt 0.464000 0.015500
vt 0.516000 -0.004500
vt 1.371300 -0.004500
vt 1.351300 0.015500
vt 0.536000 0.015500
vt 1.371300 1.004500
vt 1.351300 0.984500
vt 0.516000 1.004500
vt 0.536000 0.984500
vt 1.351300 0.480000
vt 0.536000 0.480000
vt 0.536000 0.470000
vt 1.351300 0.470000
vt 0.520000 0.984500
vt 0.520000 0.015500
vt 0.530000 0.015500
vt 0.530000 0.984500
vt 0.464000 0.480000
vt -0.351300 0.480000
vt -0.351300 0.470000
vt 0.464000 0.470000
vt 0.480000 0.015500
vt 0.480000 0.984500
vt 0.470000 0.984500
vt 0.470000 0.015500
vt -0.351300 0.520000
vt 0.464000 0.520000
vt 0.464000 0.530000
vt -0.351300 0.530000
vt 0.536000 0.520000
vt 1.351300 0.520000
vt 1.351300 0.530000
vt 0.536000 0.530000
s 0
usemtl Material__40
f 1/1/1 2/2/1 3/3/1 4/4/1
f 2/2/1 5/5/1 6/6/1 3/3/1
f 5/5/1 7/7/1 8/8/1 6/6/1
f 7/7/1 1/1/1 4/4/1 8/8/1
f 9/9/2 10/10/2 11/11/2 12/12/2
f 10/10/2 13/13/2 14/14/2 11/11/2
f 13/13/2 15/15/2 16/16/2 14/14/2
f 15/15/2 9/9/2 12/12/2 16/16/2
f 18/17/3 17/18/3 4/19/3 3/20/3
f 17/21/4 20/22/4 8/23/4 4/24/4
f 20/25/5 19/26/5 6/27/5 8/28/5
f 19/29/6 18/30/6 3/31/6 6/32/6
f 22/33/5 21/34/5 12/35/5 11/36/5
f 21/29/4 24/30/4 16/31/4 12/32/4
f 24/37/3 23/38/3 14/39/3 16/40/3
f 23/21/6 22/22/6 11/23/6 14/24/6
o garage.006
v 0.031900 0.249000 3.571400
v 0.031900 2.338300 3.571400
v -0.031900 2.338300 3.571400
v -0.031900 0.249000 3.571400
v -0.031900 2.338300 3.561400
v -0.031900 0.249000 3.561400
v -0.071900 2.262400 3.541400
v -1.702600 2.262400 3.541400
v -1.549900 1.877200 3.541400
v -0.789600 1.877200 3.541400
v -1.702600 0.324400 3.541400
v -1.549900 0.366400 3.541400
v -0.071900 0.324400 3.541400
v -0.789600 0.366400 3.541400
v -0.071900 0.324400 3.461400
v -1.702600 0.324400 3.461400
v -1.549900 0.366400 3.461400
v -0.789600 0.366400 3.461400
v -1.702600 2.262400 3.461400
v -1.549900 1.877200 3.461400
v -0.071900 2.262400 3.461400
v -0.789600 1.877200 3.461400
v -1.549900 1.877200 3.521400
v -0.789600 1.877200 3.521400
v -1.549900 0.366400 3.521400
v -0.789600 0.366400 3.521400
v -1.549900 0.366400 3.481400
v -0.789600 0.366400 3.481400
v -1.549900 1.877200 3.481400
v -0.789600 1.877200 3.481400
vn -0.0000 -0.0000 1.0000
vn -0.0000 -0.0000 -1.0000
vn -0.0000 -1.0000 -0.0000
vn 1.0000 -0.0000 -0.0000
vn -0.0000 1.0000 -0.0000
vn -1.0000 -0.0000 -0.0000
vt 0.563900 -1.518100
vt 0.563900 2.518100
vt 0.436100 2.518100
vt 0.436100 -1.518100
vt 0.231500 1.997600
vt -1.399200 1.997600
vt -1.246400 1.612300
vt -0.486100 1.612300
vt -1.399200 0.059500
vt -1.246400 0.101600
vt 0.231500 0.059500
vt -0.486100 0.101600
vt 0.768500 0.059500
vt 2.399200 0.059500
vt 2.246400 0.101600
vt 1.486100 0.101600
vt 2.399200 1.997600
vt 2.246400 1.612300
vt 0.768500 1.997600
vt 1.486100 1.612300
vt 1.486100 0.460000
vt 2.246400 0.460000
vt 2.246400 0.480000
vt 1.486100 0.480000
vt 0.460000 1.612300
vt 0.460000 0.101600
vt 0.480000 0.101600
vt 0.480000 1.612300
vt -1.246400 0.460000
vt -0.486100 0.460000
vt -0.486100 0.480000
vt -1.246400 0.480000
vt 0.540000 0.101600
vt 0.540000 1.612300
vt 0.520000 1.612300
vt 0.520000 0.101600
vt -0.486100 0.540000
vt -1.246400 0.540000
vt -1.246400 0.520000
vt -0.486100 0.520000
vt 2.246400 0.540000
vt 1.486100 0.540000
vt 1.486100 0.520000
vt 2.246400 0.520000
vt 0.490000 2.518100
vt 0.490000 -1.518100
vt 0.510000 -1.518100
vt 0.510000 2.518100
s 1
usemtl Material__37
f 25/41/7 26/42/7 27/43/7 28/44/7
s 0
f 31/45/7 32/46/7 33/47/7 34/48/7
f 32/46/7 35/49/7 36/50/7 33/47/7
f 35/49/7 37/51/7 38/52/7 36/50/7
f 37/51/7 31/45/7 34/48/7 38/52/7
f 39/53/8 40/54/8 41/55/8 42/56/8
f 40/54/8 43/57/8 44/58/8 41/55/8
f 43/57/8 45/59/8 46/60/8 44/58/8
f 45/59/8 39/53/8 42/56/8 46/60/8
f 34/61/9 33/62/9 47/63/9 48/64/9
f 33/65/10 36/66/10 49/67/10 47/68/10
f 36/69/11 38/70/11 50/71/11 49/72/11
f 38/73/12 34/74/12 48/75/12 50/76/12
f 42/77/11 41/78/11 51/79/11 52/80/11
f 41/73/10 44/74/10 53/75/10 51/76/10
f 44/81/9 46/82/9 54/83/9 53/84/9
f 46/65/12 42/66/12 52/67/12 54/68/12
f 29/85/12 30/86/12 28/87/12 27/88/12
o garage.007
v -0.031900 0.249000 3.431400
v -0.031900 2.338300 3.431400
v 0.031900 2.338300 3.431400
v 0.031900 0.249000 3.431400
v -0.031900 0.249000 3.441400
v -0.031900 2.338300 3.441400
v 0.519002 0.249000 3.441400
vn -0.0000 -0.0000 -1.0000
vn -1.0000 -0.0000 -0.0000
vt 0.509200 0.000000
vt 0.509200 1.000000
vt 0.490800 1.000000
vt 0.490800 0.000000
s 1
usemtl Material__242
f 55/89/13 56/90/13 57/91/13 58/92/13
s 0
f 59/89/14 60/90/14 56/90/14 55/89/14
